<?xml version="1.0" encoding="utf-8"?>
<!-- Generator: Adobe Illustrator 19.2.0, SVG Export Plug-In . SVG Version: 6.00 Build 0)  -->
<svg version="1.1" id="Ebene_1" xmlns="http://www.w3.org/2000/svg" xmlns:xlink="http://www.w3.org/1999/xlink" x="0px" y="0px"
	 viewBox="0 0 210 150" style="enable-background:new 0 0 210 150;" xml:space="preserve">
<style type="text/css">
	.st0{opacity:0.45;}
	.st1{fill:#3b82f6;stroke:#FFFFFF;stroke-width:3;stroke-linecap:round;stroke-linejoin:round;stroke-miterlimit:10;}
</style>
<g class="st0">
	<g>
		<g>
			<circle class="st1" cx="106.7" cy="19.4" r="11.7"/>
			<g>
				<path class="st1" d="M135.4,67l-16.8-26.7c-1.2-1.9-2.4-2.4-5.6-2.4c-3.1,0-8.6,0.1-11.9,0s-4.3,0.6-5.5,2.5L78.9,67
					c-1.6,2.5-0.8,5.9,1.7,7.5c2.5,1.6,5.9,0.8,7.5-1.7l5.3-8.4v26.1h0v44.9c0,3.8,3.1,6.9,6.9,6.9s6.9-3.1,6.9-6.9
					c0,3.8,3.1,6.9,6.9,6.9c3.8,0,6.9-3.1,6.9-6.9v-49c0,0,0-0.1,0-0.1v-22l5.3,8.4c1.6,2.5,4.9,3.3,7.5,1.7
					C136.3,72.8,137,69.5,135.4,67z"/>
				<line class="st1" x1="107.2" y1="135.4" x2="107.2" y2="103.4"/>
			</g>
		</g>
	</g>
	<g>
		<g>
			<circle class="st1" cx="42.1" cy="19.4" r="11.7"/>
			<path class="st1" d="M70.3,67L53.6,40.2c-1.2-1.9-2.5-2.4-5.6-2.4c-2.7,0-9.2,0-11.9,0s-4.3,0.6-5.5,2.5L13.8,67
				c-1.6,2.5-0.8,5.9,1.7,7.5c2.5,1.6,5.9,0.8,7.5-1.7l6.8-10.9l-10,42.1h8.5v31.5c0,3.8,3.1,6.9,6.9,6.9s6.9-3.1,6.9-6.9
				c0,3.8,3.1,6.9,6.9,6.9c3.8,0,6.9-3.1,6.9-6.9v-31.5h8.6L54.4,61.8l6.8,10.9c1.6,2.5,4.9,3.3,7.5,1.7
				C71.1,72.8,71.9,69.5,70.3,67z"/>
			<line class="st1" x1="42.1" y1="136.9" x2="42.1" y2="104.3"/>
		</g>
	</g>
	<g>
		<circle class="st1" cx="165.7" cy="36.6" r="12.4"/>
		<g>
			<path class="st1" d="M180.9,110.7v-3.8c0,0,0-0.1,0-0.1V83.5l5.6,8.9c1.7,2.7,5.2,3.5,7.9,1.8c2.7-1.7,3.5-5.2,1.8-7.9
				l-17.7-28.2c-1.3-2-2.6-2.6-5.9-2.6s-9,0.1-12.6,0c-3.6-0.1-4.5,0.6-5.8,2.6l-17.7,28.2c-1.7,2.7-0.9,6.2,1.8,7.9
				c2.7,1.7,6.2,0.9,7.9-1.8l5.6-8.9v27.1"/>
			<path class="st1" d="M159.1,142.3L159.1,142.3c-4,0-7.3-3.3-7.3-7.3v-32.8c0-4,3.3-7.3,7.3-7.3h0c4,0,7.3,3.3,7.3,7.3V135
				C166.3,139,163.1,142.3,159.1,142.3z"/>
			<path class="st1" d="M173.6,142.3L173.6,142.3c-4,0-7.3-3.3-7.3-7.3v-32.8c0-4,3.3-7.3,7.3-7.3h0c4,0,7.3,3.3,7.3,7.3V135
				C180.9,139,177.6,142.3,173.6,142.3z"/>
			<line class="st1" x1="139.9" y1="101.8" x2="139.9" y2="142.3"/>
			<line class="st1" x1="193.6" y1="101.8" x2="193.6" y2="142.3"/>
		</g>
	</g>
</g>
</svg>
