<?xml version="1.0" encoding="utf-8"?>
<!-- Generator: Adobe Illustrator 18.0.0, SVG Export Plug-In . SVG Version: 6.00 Build 0)  -->
<!DOCTYPE svg PUBLIC "-//W3C//DTD SVG 1.1//EN" "http://www.w3.org/Graphics/SVG/1.1/DTD/svg11.dtd" [
	<!ENTITY ns_extend "http://ns.adobe.com/Extensibility/1.0/">
	<!ENTITY ns_ai "http://ns.adobe.com/AdobeIllustrator/10.0/">
	<!ENTITY ns_graphs "http://ns.adobe.com/Graphs/1.0/">
	<!ENTITY ns_vars "http://ns.adobe.com/Variables/1.0/">
	<!ENTITY ns_imrep "http://ns.adobe.com/ImageReplacement/1.0/">
	<!ENTITY ns_sfw "http://ns.adobe.com/SaveForWeb/1.0/">
	<!ENTITY ns_custom "http://ns.adobe.com/GenericCustomNamespace/1.0/">
	<!ENTITY ns_adobe_xpath "http://ns.adobe.com/XPath/1.0/">
]>
<svg version="1.1" id="Ebene_1" xmlns:x="&ns_extend;" xmlns:i="&ns_ai;" xmlns:graph="&ns_graphs;"
	 xmlns="http://www.w3.org/2000/svg" xmlns:xlink="http://www.w3.org/1999/xlink" x="0px" y="0px" width="210px" height="145px"
	 viewBox="0 0 210 145" enable-background="new 0 0 210 145" xml:space="preserve">
<metadata>
	<sfw  xmlns="&ns_sfw;">
		<slices></slices>
		<sliceSourceBounds  height="143.6" width="153" y="-44.3" x="29.2" bottomLeftOrigin="true"></sliceSourceBounds>
	</sfw>
</metadata>
<g opacity="0.45">
	<g>
		<path fill="#3b82f6" d="M36.6,54.2c0.5-1.3,2.9-4.7,4.2-6.8c1.3-2.1-0.3-1.3-1.5-0.5c-1.3,0.8,0.8-2.1,1.5-2.7
			c0.8-0.5,5.2-3.7,5.2-3.7s1.5-1.5-0.3-5c-1.4-2.7,0-2.9,0-3.9c0,0-0.2-0.1-0.5-0.1C37,42.7,32,56.1,31.7,70.9
			c0.4-1.1,1-3.8,0.8-4.7c-0.3-1.3,0.8-4.5,0.8-6S36.1,55.5,36.6,54.2z"/>
		<path fill="#3b82f6" d="M55.7,22.8l2.3,1l2.9-1c0,0,0.8-1.5,2.7-2.9c1.8-1.3,1.5-1.5,2.3-2.7c0.8-1,0,0,3.4-3.7
			c3.4-3.7,5.2-3.7,5.2-3.7s1-1,1.8-2.1C68,11,60.5,15.7,54.1,21.6c-0.1,0.3-0.2,0.6-0.3,0.9C53.6,23.6,55.7,22.8,55.7,22.8z"/>
		<path fill="#3b82f6" d="M53.9,123.3c1,0.3,1.4-0.3,2.3-0.3c1,0,2.7-1.3,2.7-1.3l-1-3.2l1-3.9l1.3-3.7c0,0,0-2.7-1.3-2.9
			c-1.3-0.2-3.7-2.7-4.5-2.7s-2.1-0.5-2.9-1c-0.8-0.5-2.3-1-2.9-1.8c-0.5-0.8-1.3-2.1-1.8-3.4c-0.5-1.2-0.3-1.3-2.3-3.7
			c-2-2.3-1.5-1.8-3.2-2.7c-1.5-0.8-2.1-1.5-3.4-2.1c-1.3-0.5-1.9-1-2.9-1.8c-0.7-0.6-1.1-0.8-1.5-0.9
			C36.7,101.8,43.9,113.9,53.9,123.3z"/>
		<path fill="#3b82f6" d="M94.9,26.8l1-1.5l-2.9-3.4L91.8,19l-1.1,1.2v4.7l-3.9-1l-1.2,2.3l1.3,1.5l3.8-2.8v2.8L94.9,26.8z M88,25
			v-0.2h0.1L88,25z"/>
		<path fill="#3b82f6" d="M129.9,118.3L129.9,118.3l-0.3-8c0-4.4,1.6-8.2,4.1-11l6-6.2V70.9l-0.2-0.1c-0.8-1.3-1.6-3.9-1.9-5
			c-0.3-1-1.6-3.9-1.8-4.7c-0.3-0.8-2-3.2-2.7-3.9c-0.5-0.8-2.3-1.3-3.4-2.1c-1-0.8-7.5-2.1-7.5-2.1s-2-1.2-2.7-0.8
			c-2.7,2.1-8.7,0.8-9.9,0.3c-1.3-0.5-2.1-1.3-2.1-2.1s-1.2-4.6-1.2-4.6s-2.5,0.4-3.4,0.4s-2.9-0.8-2.9-0.8s-2.7,0.2-3.7,0.8
			c-1,0.5-3.2,1.3-3.9,1.5c-0.7,0.5-2.8,0.7-2.8,0.7c-2.3-1-4.2,1.5-4.7,2.7c-0.5,1-1.5,1.5-1.5,2.7c0,1-1.8,2.7-2.7,3.2
			c-0.8,0.5-3.7,2.1-4.5,3.4c-0.8,1.3-1.5,2.9-1.8,4.2c-0.3,1.3-0.3,2.3-0.3,4.2c0,1.8-0.3,2.9,0,4.5c0.2,1.5,2.9,5.5,3.9,6.8
			c1,1.3,2.3,2.9,3.7,3.7c1.3,0.8,3.2,2.3,3.2,2.3s1,1.5,3.2,0.8c2.1-0.8,4.2-0.8,6-1.8s4.7-2.3,4.7-0.8c0,1.5,1,2.7,2.7,2.1
			c1.5-0.5,4.2-1.8,3.9,0c-0.2,1.8,0.5,4.2,0.5,5.2s-0.3,2.1,0.5,2.9c0.8,0.8,2.9,2.1,2.9,2.9c0,0.8,0.3,3.4,0.8,4.5
			c0.5,1,1.1,2.7,0.5,3.7c-0.5,1-1.5,3.9-1.5,3.9s-0.5,2.3-0.2,3.2c0.3,0.8,0.9,1.8,2.2,3.2s1.3,2.9,2,3.9c0.8,1,2.4,4.2,2.4,4.2
			l1.6,2.7v2.3c0,0,4.3-0.8,5.3-1c1-0.3,3.8-2.1,4.8-3.2s0.8-1.8,2.1-2.9c0.2-0.1,0.3-0.5,0.5-0.7
			C129.9,120,129.9,119.3,129.9,118.3z"/>
		<path fill="#3b82f6" d="M131.5,50c0.8-0.5,3.4-2.1,3.4-2.1s-0.5,1.8-0.3,3.2c0.3,1.3,0.3,3.2,0.3,3.2s-2.7,0-1.8,0.5
			c0.8,0.5,1.9,2.4,2.3,3.2c1.2,1.7,3.1,4.4,4.7,6.8c1.5-4,5.1-6.8,9.4-7l0,0c0,0,0.2-0.3,1.1,0c3.1,0.1,5.8,1.6,7.6,3.9
			c0.7,0.2,1.4,0.7,2.5,1.3c1.8,1,2.7,2.3,3.7,2.9s2.7,2.7,2.7,2.7s1.5,3.7,1.8,4.7c0.1,0.5,0.6,1.7,1.1,2.8c0.1,0,0.2,0.1,0.3,0.1
			c0.1-1.1,0.1-2.2,0.1-3.4c0-24.8-13-46.5-32.6-58.8c-1.1,0.6-3,1.9-3.7,1.2c-0.8-0.8-2.7-2.1-2.7-2.1c1.6-1-3.2-2.7-3.2-2.7
			l-5.5,0.1c0,0-3.2,0-3.9,0c-0.8,0-2.3-0.2-3.7-0.2c-1.3,0-4.5,1.7-5.5,2s-3.4,1.4-4.5,1.4c-1,0-2.7,1.9-2.7,1.9s-1.8,3.3-0.2,2.8
			c1.5-0.5,3.7-0.6,3.9,0.2c0.3,0.8,0.8,2,1,2.9c0.2,0.8,3.9,1,3.9,1s0.5-1.3,1.3-2.3c0.8-1,1.5-2.3,1.5-2.3s1.3,2.7,1.5,3.4
			c0.2,0.8-0.5,3.2-0.5,3.2s-2.9,1.8-3.7,1.8c-0.8,0-5.2-3.9-5.2-3.9c-1.5,0.5-2.9,1.3-2.9,1.3c-1.8,1.8-3.7,3.4-3.7,3.4
			s-1.6,0.5-2.7,1.3c-1,0.8-3.3,0.9-4,1.8c-1.3,1.8,0.5,3.2,0.5,3.2L92,35.2l-1.1,0.8l-3.8,0.8l-1.8,0.4c0.3,0.8,0.2,3.3,0.2,3.3
			v4.4c0,0,3.4,1,4.1,1c0.8,0,2.5,0.3,3.6-0.8c1-1,2.7-3.4,3.2-4.2s1.2-1.5,2.8-2.1c1.5-0.5,1.7-1.3,2.5-1.5c0.8-0.3,4-0.8,4-0.8
			s2.2,1.3,3.1,1.8c0.4,0.2-1.7,1,3.4,1.8v2l2.9-0.3l-2-2.1l-0.3-0.1l-3.1-3.1l-0.2-2.3c0,0,3.2,1.8,4.3,2.3c1,0.5,3.3,2,3.3,2
			l1.5,3.7l2.1,2.5c-0.7-0.9-2.4-3.4,0.3-3.4c0,0,2.4,0.3,3.3,0c0.8-0.3,1.5-0.5,2.5-1s-0.4-2.3,0.6-3.7s2.4-1.8,3.2-2.1
			c0.8-0.3,3.5-1.5,3.5-1.5l2.9,0.5c-1.3,1-2.9,2.7-1.8,2.3c1-0.3,3.4,1,4.5,1.8c1,0.8,0.3,2.7,0.3,2.7s-2.9-0.3-4.7-0.5
			c-1.8-0.3-4.7,0.3-4.7,0.3l-2.3,1.3c0,0-1.5,0.5-1.3,1.8c0.2,1.3,1.3,2.9,2.3,4.2C130,49,130.8,50.5,131.5,50z"/>
	</g>
	<path fill="#3b82f6" d="M133.8,133.1c-9.7,5.2-20.8,8.3-32.6,8.3c-37.9,0-68.8-30.9-68.8-68.8S63.2,3.7,101.1,3.7
		s68.8,30.9,68.8,68.8c0,1.1,0,2.2-0.1,3.4c1,0.3,2,0.7,3,1.2c0.1-1.5,0.2-3.1,0.2-4.6c0-39.7-32.2-71.9-71.9-71.9
		S29.2,32.8,29.2,72.4s32.2,71.9,71.9,71.9c12.4,0,24.1-3.2,34.3-8.8C134.9,134.8,134.3,133.9,133.8,133.1z"/>
	<g>
		<g>
			<path fill="none" stroke="#3b82f6" stroke-width="3" stroke-linecap="round" stroke-linejoin="round" stroke-miterlimit="10" d="
				M180.8,118.8c0,12.3-9.8,22.4-22.1,22.4S136,131.2,136,118.8"/>
			<g>
				
					<path fill="none" stroke="#3b82f6" stroke-width="3" stroke-linecap="round" stroke-linejoin="round" stroke-miterlimit="10" d="
					M136,118.9l-0.3-8.2c0-2.7,0.8-5.4,2.4-7.2l7-7.7"/>
			</g>
			<g>
				<g>
					
						<path fill="none" stroke="#3b82f6" stroke-width="3" stroke-linecap="round" stroke-linejoin="round" stroke-miterlimit="10" d="
						M173.6,86.6c0.5-0.1,1-0.2,1.5-0.2l0,0c3.1,0,5.5,2.5,5.5,5.5v27.2"/>
					
						<path fill="none" stroke="#3b82f6" stroke-width="3" stroke-linecap="round" stroke-linejoin="round" stroke-miterlimit="10" d="
						M164.1,82.3c0.8-0.5,1.7-0.7,2.8-0.7l0,0c3.1,0,5.5,2.5,5.5,5.5v14.5"/>
					
						<path fill="none" stroke="#3b82f6" stroke-width="3" stroke-linecap="round" stroke-linejoin="round" stroke-miterlimit="10" d="
						M155.3,80.6c0.9-0.7,2-1.1,3.4-1.1l0,0c3.1,0,5.5,2.5,5.5,5.5v15"/>
					
						<path fill="none" stroke="#3b82f6" stroke-width="3" stroke-linecap="round" stroke-linejoin="round" stroke-miterlimit="10" d="
						M145.4,108.9V68.8c0-2.4,2.2-5,4.9-5l0,0c2.8,0,4.9,2.3,4.9,4.9v29.9"/>
				</g>
			</g>
		</g>
	</g>
</g>
</svg>
